<svg xmlns="http://www.w3.org/2000/svg" viewBox="0 0 113.061 26">
  <defs/>
  <path fill="#231f20" d="M22.662 0c-4.586 0-7.908 6.041-7.908 13.032C14.755 20.18 18.297 26 22.662 26s7.939-5.82 7.939-12.968C30.57 5.82 27.027 0 22.662 0zm2.689 24.545c-.696 1.012-1.696 1.261-2.689 1.261-.969 0-1.961-.249-2.657-1.261-1.17-1.708-1.676-4.46-1.676-11.513 0-6.2.506-9.805 1.676-11.513.696-1.044 1.68-1.257 2.657-1.257 1 0 1.993.182 2.689 1.257 1.17 1.708 1.676 5.314 1.676 11.513 0 7.053-.506 9.805-1.676 11.513zM42.495.696v7.212c0 .063-.095.063-.095 0 0-3.258-1.645-7.112-4.681-7.08h-2.404c-.095 0-.158.032-.158.127v11.617h.411c1.961 0 3.353-2.291 3.353-4.695 0-.063.095-.063.095 0v9.584c0 .063-.095.063-.095 0 0-2.372-1.392-4.695-3.353-4.695h-.411v12.282c0 .095.063.127.158.127h2.151l.001.003c.048.004.087.051.087.111 0 .061-.039.108-.088.112v.001h-.001l-.003.001-.003-.001h-7.825l-.003.001-.003-.001h-.007l-.002-.005c-.044-.008-.08-.051-.08-.108s.035-.098.079-.107l.003-.007h2.151c.127 0 .158-.032.158-.127V.954c0-.095-.063-.127-.158-.127h-2.138l-.003.001-.003-.001h-.007c-.055 0-.081-.054-.082-.11l-.001-.003c0-.057.028-.114.082-.114h12.81c.033.001.065.064.065.096zM11.529 8.92c.38-.158.727-.38.949-.633.727-.727 1.139-1.581 1.139-2.372s-.348-1.55-1.075-2.182c-.38-.316-.727-.917-.727-1.676C11.813.949 12.541 0 13.458 0c1.139 0 1.708.981 1.74 2.594 0 1.961-1.74 5.757-3.638 6.484-.063.031-.063-.127-.031-.158zm2.087 8.129v8.224c0 .095-.032.127-.063.127H.167l-.003.001-.003-.001H.154c-.01 0-.014-.01-.022-.015a.107.107 0 01-.06-.097c0-.056.035-.098.079-.107.004-.001.006-.007.011-.007H2.23c.095 0 .158-.032.158-.127V.954c0-.095-.063-.127-.158-.127H.095L.092.828.089.827H.078C.072.827.069.818.064.814A.105.105 0 010 .715C0 .667.027.634.061.617.067.612.071.601.079.601h7.844c.14 0 .14.226 0 .226H5.772c-.095 0-.158.032-.158.127v24.093c0 .095.063.127.158.127h2.436c3.701 0 5.314-4.55 5.314-8.124-.001-.065.094-.065.094-.001zm62.976-.317v9.204c0 .032-.063.032-.063 0-.063-.411-.443-1.044-1.107-1.044-1.107 0-2.91 1.107-4.27 1.107-4.618 0-8.034-6.041-8.034-12.968C63.117 6.041 66.439 0 71.057 0c1.17 0 2.689.949 3.796.949.664 0 1.139-.474 1.202-.854 0-.063.095-.063.095 0v8.192c0 .063-.095.063-.095 0 0-3.479-2.625-8.028-5.029-8.028-1.107 0-1.993.215-2.689 1.259-1.17 1.708-1.645 5.314-1.645 11.513 0 6.168.474 9.805 1.645 11.513.696 1.012 1.708 1.261 2.815 1.261 2.973 0 5.377-4.487 5.377-9.074 0-.062.063-.062.063.001zM55.653.696v7.212c0 .063-.095.063-.095 0 0-3.258-1.645-7.112-4.713-7.08h-2.404c-.095 0-.158.032-.158.127v11.611h.411c1.961 0 3.353-2.285 3.353-4.689 0-.063.095-.063.095 0v9.584c0 .063-.095.063-.095 0 0-2.372-1.392-4.689-3.353-4.689h-.411v12.276c0 .095.063.127.158.127h2.151c.004 0 .005.007.009.009.042.011.075.05.075.105 0 .056-.035.097-.078.107-.002.001-.003.006-.006.006h-.005l-.003.001-.003-.001H42.76l-.003.001-.003-.001h-.006c-.003 0-.004-.005-.006-.006-.043-.01-.077-.051-.077-.106 0-.054.033-.093.074-.104.004-.002.005-.009.009-.009h2.151c.127 0 .158-.032.158-.127V.954c0-.095-.063-.127-.158-.127h-2.135l-.003.001-.003-.001h-.011c-.005 0-.007-.009-.011-.011a.104.104 0 01-.068-.101c0-.05.029-.084.065-.1.005-.004.008-.014.014-.014h12.842c.032 0 .064.063.064.095zm57.408 16.384v8.224c0 .063 0 .095-.063.095H99.54l-.003.001-.003-.001h-.01c-.005 0-.007-.008-.011-.011a.105.105 0 01-.068-.102c0-.05.029-.085.065-.1.005-.004.008-.014.014-.014h2.151c.095 0 .158-.032.158-.127V.954c0-.095-.063-.127-.158-.127h-2.144l-.003.001-.003-.001h-.001l-.001-.001c-.048-.004-.087-.051-.087-.111 0-.059.038-.104.084-.11.002 0 .002-.004.004-.004h7.844c.004 0 .005.011.008.016.034.017.061.05.061.098a.106.106 0 01-.062.098c-.003.004-.004.014-.007.014h-.02l-.003.001-.003-.001h-2.125c-.095 0-.158.032-.158.127v24.093c0 .095.063.127.158.127h2.435c3.701 0 5.314-4.518 5.314-8.093.001-.064.095-.064.095-.001zm-13.822.317v7.908c0 .063-.032.095-.063.095H85.053l-.003.001-.003-.001h-.011c-.005 0-.007-.009-.011-.011a.105.105 0 01-.068-.101c0-.049.029-.084.065-.1.005-.004.008-.014.014-.014h2.151c.095 0 .158-.032.158-.127V.954c0-.095-.032-.127-.158-.127h-2.134l-.003.001-.003-.001h-.011c-.005 0-.007-.009-.012-.012a.105.105 0 01-.066-.101c0-.049.028-.083.063-.099.005-.004.008-.015.015-.015h12.842c.063 0 .063.063.063.095v7.243c0 .063-.095.063-.095 0 0-3.258-1.613-7.112-4.65-7.112h-2.404c-.095 0-.158.032-.158.127v11.611h.633c1.961 0 3.384-2.285 3.384-4.689 0-.063.063-.063.063 0v9.584c0 .063-.063.063-.063 0 0-2.372-1.423-4.689-3.384-4.689h-.633v12.276c0 .095.032.127.158.127h2.467c4.017 0 5.883-4.17 5.883-7.776.002-.064.097-.064.097 0zm-35.386 7.89c0 .05-.029.084-.065.1-.002.003-.003.013-.006.013h-.018l-.003.001-.003-.001h-7.804l-.003.001-.003-.001h-.01c-.005 0-.007-.008-.011-.011a.104.104 0 01-.068-.101c0-.05.029-.084.065-.1.005-.004.008-.014.014-.014h2.151c.095 0 .158-.032.158-.127V.954c0-.095-.063-.127-.158-.127H55.95l-.003.001-.003-.001h-.006c-.003 0-.004-.006-.007-.007-.042-.01-.077-.051-.077-.106 0-.054.033-.092.074-.104.004-.002.005-.01.01-.01h7.844c.004 0 .006.011.008.017.033.017.059.05.059.097s-.027.08-.06.097c-.003.004-.004.015-.007.015h-.022l-.003.001-.003-.001h-2.123c-.095 0-.158.032-.158.127v24.093c0 .095.063.127.158.127h2.151c.003 0 .005.01.007.015.035.015.064.05.064.099zm20.855 0a.105.105 0 01-.074.104c-.003.001-.005.008-.008.008h-.008l-.003.001-.003-.001h-7.8l-.003.001-.003-.001h-.025c-.004 0-.006-.011-.009-.017a.108.108 0 01-.056-.095c0-.045.024-.076.055-.095.003-.007.005-.019.01-.019h2.151c.095 0 .158-.032.158-.127V.954c0-.095-.063-.127-.158-.127h-2.125l-.003.001-.003-.001h-.02c-.003 0-.004-.01-.007-.013a.106.106 0 01-.063-.099c0-.048.028-.082.062-.098.003-.005.004-.015.008-.015h7.844c.008 0 .012.011.017.017.033.018.059.05.059.097a.106.106 0 01-.062.098c-.005.004-.008.014-.014.014h-.014l-.003.001-.003-.001h-2.132c-.095 0-.158.032-.158.127v24.093c0 .095.063.127.158.127h2.151c.005 0 .007.009.011.011a.1.1 0 01.073.101z"/>
</svg>
