<svg width="369" height="66" viewBox="0 0 369 66" fill="none" xmlns="http://www.w3.org/2000/svg">
<g clip-path="url(#clip0)">
<path d="M26.6131 5.80321C26.6791 5.71519 26.7349 5.61251 26.9378 5.34847C27.2523 4.93774 27.3791 4.65904 27.3639 4.50746C27.3588 4.42922 27.3284 4.40478 27.1255 4.10651C27.0189 3.95004 26.9074 3.7838 26.8008 3.62244C26.5726 3.31439 25.8421 2.136 24.7312 0.556651C24.6703 0.493086 24.5537 0.31217 24.366 0.170371C24.3355 0.136144 24.1479 0.0090139 23.9094 -0.000765324C23.5239 -0.0105446 23.2196 0.321949 23.113 0.429521C21.9768 1.69593 9.28002 20.8485 5.49078 25.9337C4.88206 26.7601 3.59869 28.4323 2.40663 30.9603C1.72182 32.3783 0.443526 35.1262 0.0782978 38.8912C-0.0180819 39.9718 -0.292003 43.6146 1.1334 48.0593C3.0407 53.961 6.74371 57.4913 7.77345 58.4301C9.1177 59.6721 12.0801 62.0778 16.4172 63.5251C23.0623 65.7548 32.2184 65.5054 39.5787 60.1024C40.1722 59.6672 48.4457 53.3792 49.1 43.155C49.3892 38.3485 47.8877 34.5737 46.8833 32.0311C46.0666 29.9872 44.9861 27.9287 39.0005 19.8071C37.1591 17.2987 34.638 13.9444 31.5539 10.0034C31.3966 9.79802 31.1937 9.55843 30.9401 9.29928C30.3872 8.72231 30.1944 8.70764 30.098 8.70764C29.8343 8.71253 29.6263 8.92278 29.5451 9.04502C28.8907 10.0767 28.5103 10.6879 28.1501 11.304C27.5313 12.3993 22.5601 20.1542 12.0598 35.625C12.0091 35.7032 11.8366 35.9868 11.7402 36.2117C11.1924 37.4194 10.3098 40.3043 11.0098 43.864C11.2228 44.9201 12.0852 48.9296 15.8643 51.8096C21.6724 56.2542 28.9009 53.8241 29.256 53.697C30.3821 53.3009 33.5626 52.0101 35.8554 48.7731C38.6707 44.8125 38.7773 39.83 37.3569 36.3486C36.9258 35.2925 35.9924 33.85 34.1155 30.9847C32.9133 29.1511 31.8278 27.694 31.1176 26.6574C31.0111 26.5156 30.9249 26.3885 30.8031 26.2222C30.5647 25.9044 30.4582 25.7431 30.3314 25.7186C29.9103 25.5964 29.3067 26.7161 28.5306 27.9434C28.1755 28.5057 27.6429 29.3223 26.9632 30.3002C28.6523 32.9846 30.7575 35.4783 32.0713 38.3534C32.4568 39.1699 33.73 42.534 31.0517 45.9763C29.2408 48.3184 26.2428 49.4235 23.3819 49.0127C19.7803 48.5042 17.4165 45.7514 16.686 43.2088C16.0317 40.9302 16.7063 38.8912 16.96 38.1236C17.3658 36.9158 17.868 36.2362 19.131 34.3586C20.2977 32.6472 21.3579 30.8625 22.5398 29.1707C24.0261 27.0584 26.2885 23.6894 29.6871 18.1544C29.8241 17.9588 30.0169 17.7339 30.2806 17.729C30.5546 17.7192 30.7676 17.9783 30.864 18.081C39.2744 28.2025 41.4505 33.2339 41.4505 33.2339C42.2064 34.9991 42.5919 35.8792 42.7999 36.6567C44.4079 42.5731 42.2114 47.5947 41.8107 48.4553C39.4215 53.6872 35.1757 56.2396 33.6133 57.0708C32.5735 57.6184 25.6646 61.1536 17.7868 58.2688C12.2221 56.2396 9.29524 52.1567 8.11332 50.1471C7.31185 48.7927 5.29294 44.9739 5.61759 39.8691C5.92702 35.1849 8.05245 31.8551 9.02132 30.3784C9.60974 29.4787 10.0866 28.9164 10.5279 28.359C16.894 20.4623 25.908 6.67845 26.6131 5.80321Z" fill="white"/>
<path d="M73.7158 1.82812C83.8509 1.82812 88.1778 7.69566 88.1778 14.8589C88.1778 22.0222 83.8509 27.8849 73.7158 27.8849H65.7822V1.82812H73.7158ZM85.6009 14.8589C85.6009 9.16255 82.674 4.08224 73.7564 4.08224H68.2526V25.6308H73.7564C82.674 25.6308 85.6009 20.5505 85.6009 14.8589Z" fill="white"/>
<path d="M123.27 27.7775H120.343L112.593 17.0008H106.906V27.7775H104.431V1.71094H112.821C118.624 1.71094 121.15 5.27546 121.15 9.35829C121.15 12.8739 119.298 15.9202 115.205 16.7416L123.27 27.7775ZM118.669 9.3534C118.669 6.66411 117.28 3.83792 112.821 3.83792H106.906V14.8738H112.821C117.28 14.8738 118.669 12.0916 118.669 9.3534Z" fill="white"/>
<path d="M141.896 1.82812V27.8898H139.415V1.82812H141.896Z" fill="white"/>
<path d="M169.771 2.21484C175.59 2.21484 178.111 5.98962 178.111 10.0725C178.111 14.2042 175.59 17.935 169.771 17.935H163.872V28.2765H161.396V2.21484H169.771ZM175.64 10.0725C175.64 7.37827 174.24 4.34183 169.771 4.34183H163.872V15.8129H169.771C174.24 15.808 175.64 12.8057 175.64 10.0725Z" fill="white"/>
<path d="M68.9877 38.9365V50.2266H85.1136V38.9365H87.5941V64.9981H85.1136V52.3585H68.9877V64.9981H66.4971V38.9365H68.9877Z" fill="white"/>
<path d="M103.08 38.623H105.911L114.524 52.001L123.132 38.623H125.841L115.696 54.216V64.6847H113.215V54.216L103.08 38.623Z" fill="white"/>
<path d="M148.893 38.584C159.028 38.584 163.36 44.4466 163.36 51.6099C163.36 58.7781 159.028 64.6456 148.893 64.6456H140.954V38.584H148.893ZM160.793 51.6148C160.793 45.9233 157.866 40.843 148.943 40.843H143.435V62.3915H148.943C157.866 62.3915 160.793 57.3112 160.793 51.6148Z" fill="white"/>
<path d="M198.895 64.8761H195.973L188.207 54.1092H182.541V64.8761H180.065V38.8145H188.44C194.254 38.8145 196.775 42.379 196.775 46.4716C196.775 49.9872 194.933 53.0237 190.83 53.85L198.895 64.8761ZM194.294 46.4716C194.294 43.7676 192.904 40.9463 188.44 40.9463H182.541V51.9822H188.44C192.904 51.9822 194.294 49.1951 194.294 46.4716Z" fill="white"/>
<path d="M214.768 65.2276H212.196L223.371 39.1709H225.405L236.58 65.2276H233.877L230.635 57.6732H217.969L214.768 65.2276ZM224.274 42.7305L218.862 55.5413H229.717L224.274 42.7305Z" fill="white"/>
<path d="M246.211 40.7207V38.5889H267.978V40.7207H258.334V64.6505H255.854V40.7207H246.211Z" fill="white"/>
<path d="M286.696 39.1709V65.2276H284.226V39.1709H286.696Z" fill="white"/>
<path d="M316.903 38.6328C324.831 38.6328 330.741 44.3683 330.741 52.3139C330.741 60.3036 324.837 66 316.903 66C308.929 66 303.08 60.3085 303.08 52.3139C303.08 44.3683 308.929 38.6328 316.903 38.6328ZM316.903 40.8478C310.375 40.8478 305.647 45.4489 305.647 52.3139C305.647 59.1741 310.375 63.7752 316.903 63.7752C323.345 63.7752 328.174 59.1741 328.174 52.3139C328.169 45.4489 323.345 40.8478 316.903 40.8478Z" fill="white"/>
<path d="M349.801 38.7012L366.156 59.9416V38.7012H368.504V64.7677H366.795L350.43 43.5272V64.7677H348.087V38.7012H349.801Z" fill="white"/>
</g>
<defs>
<clipPath id="clip0">
<rect width="368.5" height="66" fill="white"/>
</clipPath>
</defs>
</svg>
